<svg xmlns="http://www.w3.org/2000/svg" width="444.46" height="550.738" viewBox="0 0 444.46 550.738">
  <g id="Group_26" data-name="Group 26" transform="translate(-1.06 -674.772) rotate(14)" opacity="0.057">
    <g id="Group_25" data-name="Group 25" transform="matrix(0.951, -0.309, 0.309, 0.951, 190.306, 779.779)">
      <path id="Path_66" data-name="Path 66" d="M39.828,163.486C4.215,99.659-4.59,27.133,2.03,26.322c7.971-.98,5.763,36.954,14.618,35.8,8.509-1.11-10.414-50.369-1.013-54.892s8.9,60.588,18.677,57.24C38.892,62.9,20.129,4.308,30.573.181s12,63.693,18.195,63.014c7.668-.839-12.6-47.225-1.121-50.983S60.99,89.221,68.829,87.587,67.434,51.227,82.974,45.843c8.688-3.012-.28,44.6,2.885,56.424,6.753,25.235,19.707,51.263,30.623,66.236,4.88,6.693,75.111,95.881,49.109,97.844-22.731,1.717-45.9,6.19-67.679-5.747-19.475-10.676-24.047-33.742-58.084-97.114" transform="translate(17.693 0)" fill="#fff"/>
      <path id="Path_67" data-name="Path 67" d="M13.931,40.525A92.392,92.392,0,0,1,5.725,20.959,89.493,89.493,0,0,1,3.434,11C2.852,7.621,3,3.83,1.89.59a.836.836,0,0,0-1.6,0C-.46,3.878.414,7.67.97,10.946A81.766,81.766,0,0,0,3.535,21.562a80.806,80.806,0,0,0,9.274,19.619.65.65,0,0,0,1.122-.656" transform="translate(6.847 59.308)" fill="#fff"/>
      <path id="Path_68" data-name="Path 68" d="M10.327,20.618C9.481,19,8.41,17.5,7.548,15.884c-.9-1.691-1.747-3.421-2.48-5.193A47.9,47.9,0,0,1,3.272,5.5c-.248-.881-.475-1.771-.686-2.663A5.2,5.2,0,0,0,1.7.281.955.955,0,0,0,.128.7,4.838,4.838,0,0,0,.4,3.436c.22.95.482,1.888.774,2.818a50.6,50.6,0,0,0,2.051,5.4,39.2,39.2,0,0,0,2.651,5,25.111,25.111,0,0,0,3.5,4.693.608.608,0,0,0,.95-.734" transform="translate(0 72.431)" fill="#fff"/>
      <path id="Path_69" data-name="Path 69" d="M.259,1.273A44.011,44.011,0,0,1,10.912,15.042a45.234,45.234,0,0,1,3.129,7.979c.807,2.846.939,5.868,1.793,8.672.255.839,1.752,1.022,1.891,0,.392-2.908-.436-6.053-1.223-8.852A44.331,44.331,0,0,0,13.131,14.3,44.811,44.811,0,0,0,1.348.184C.588-.426-.5.622.259,1.273" transform="translate(97.215 12.617)" fill="#fff"/>
      <path id="Path_70" data-name="Path 70" d="M.211,1.16a29.5,29.5,0,0,1,6.9,7.789,30.488,30.488,0,0,1,2.37,4.579c.322.793.61,1.6.874,2.414a5.667,5.667,0,0,0,1.006,2.34.735.735,0,0,0,1.214-.32,4.469,4.469,0,0,0-.34-2.537,27.7,27.7,0,0,0-.989-2.64A29.354,29.354,0,0,0,8.621,7.912a32.144,32.144,0,0,0-7.6-7.8C.417-.337-.387.692.211,1.16" transform="translate(108.168 8.358)" fill="#fff"/>
    </g>
    <g id="Logo" transform="translate(346.638 609)">
      <path id="legs" d="M254.27,324.729a.5.5,0,0,1-.088-.3l.886-19.872q2.5-49.515,3.586-78.833,3.735-60.964,6.2-92.41a3.1,3.1,0,0,0-3.043-3.344q-18.976-.237-50.868-1.5-18.606-.732-32.8-1.118a.49.49,0,0,0-.5.5v81.694a23.423,23.423,0,0,1-8.446,18.091L157.676,237.2a12.721,12.721,0,0,1-16.263,0l-11.512-9.56a23.423,23.423,0,0,1-8.446-18.091v-5.61a13.6,13.6,0,0,1,3.76-9.386l6.875-7.2a.5.5,0,0,0-.011-.7l-6.977-6.862a12.364,12.364,0,0,1-3.568-7.124,12.694,12.694,0,0,1,.02-3.771,12.42,12.42,0,0,1,3.283-6.634l6.292-6.588a.5.5,0,0,0-.038-.725l-5.24-4.431a12.445,12.445,0,0,1-4.4-9.528V127.941a.493.493,0,0,0-.5-.5q-13.624.38-30.841,1.03-33.18,1.257-52.868,1.5a3.108,3.108,0,0,0-3.039,3.378q4.88,58.6,6.17,92.374l3.321,69.249,1.3,29.458a.492.492,0,0,1-.086.3,132.456,132.456,0,0,0-9.88,16.537,2.486,2.486,0,0,0,2.167,3.6c22.669.117,63.989.285,85.806.131a6.238,6.238,0,0,0,6.36-6.064V287.01a.484.484,0,0,1,.63-.468,68.334,68.334,0,0,0,38.387.2.485.485,0,0,1,.626.474l-.341,31.367h.16v20.342a6.279,6.279,0,0,0,6.435,6.064c21.828.151,62.952-.011,86.045-.127a2.963,2.963,0,0,0,2.61-4.32,135.644,135.644,0,0,0-9.641-15.818" transform="translate(-15.574 160.39)" fill="#fff"/>
      <g id="Head" transform="translate(0)">
        <path id="Path_5" data-name="Path 5" d="M56.434,104.131Q69.479,85.87,91.028,73.875C69.724,60.054,31.171,29.769,47.462,0c0,0-49.587,10.4,1.819,116.046a90.457,90.457,0,0,1,7.153-11.916" transform="translate(-25.952 0.001)" fill="#fff"/>
        <path id="Path_6" data-name="Path 6" d="M157.069,112.815C205.915,10.179,157.324,0,157.324,0c16.112,29.442-21.426,59.391-42.863,73.415A139.77,139.77,0,0,1,137.5,89.83a98.684,98.684,0,0,1,19.571,22.985" transform="translate(85.518)" fill="#fff"/>
        <path id="Path_7" data-name="Path 7" d="M234.715,60.187q-36.169-31.648-85.4-31.648A125.54,125.54,0,0,0,96.57,40.259Q69.444,52.487,54.373,73.58,38.3,96.023,34.278,135.705q-1.5,15.238-1.507,66.813,0,27.127,1.34,39.016.671,4.857,4.187,4.855,19.088,0,57.518-1.423,19.806-.732,34.506-1.089v21.557a4.488,4.488,0,0,0,1.618,3.45l10.522,8.764a2.123,2.123,0,0,1,.165,3.109l-11.105,11.457a4.525,4.525,0,0,0,.1,6.338l10.705,10.375a3.361,3.361,0,0,1,.075,4.749l-10.655,10.992a5.051,5.051,0,0,0-1.423,3.513v5.809a15.469,15.469,0,0,0,5.673,11.973l11.69,9.562a5.13,5.13,0,0,0,6.5,0l11.69-9.562a15.469,15.469,0,0,0,5.673-11.973V243.78q15.4.342,37.3,1.186,36.921,1.423,55.34,1.423,3.857,0,3.852-4.855,0-8.205.5-24.7t.5-24.7q0-43.7-.337-53.415-1.671-50.569-33.991-78.533M206.222,173.7q-.237,7.758-.237,11.613c0,1.523-.6,2.284-1.81,2.284q-8.663,0-26.024-.669t-26.024-.669q-9.052,0-27.127.669t-27.047.669q-1.654,0-1.968-2.284-.63-5.589-.63-18.346,0-24.249.709-31.417,1.891-18.661,9.449-29.212,7.087-9.923,19.842-15.669a59.028,59.028,0,0,1,24.8-5.513q23.151,0,40.157,14.883,15.2,13.15,15.985,36.93.156,4.565.158,25.118,0,3.857-.237,11.613" transform="translate(-17.364 35.942)" fill="#fff"/>
      </g>
    </g>
  </g>
</svg>
