<svg width="31" height="21" viewBox="0 0 31 21" fill="none" xmlns="http://www.w3.org/2000/svg">
<path d="M10.8648 0.299935C10.6746 0.107959 10.4154 0 10.145 0C9.8746 0 9.6154 0.107953 9.42521 0.299935L0.299935 9.42521C0.107959 9.61541 0 9.8746 0 10.145C0 10.4154 0.107952 10.6746 0.299935 10.8648L9.42521 19.9901C9.6154 20.182 9.87459 20.29 10.145 20.29C10.4154 20.29 10.6746 20.182 10.8648 19.9901C11.0568 19.7999 11.1647 19.5407 11.1647 19.2703C11.1647 18.9999 11.0568 18.7407 10.8648 18.5505L3.46354 11.159H29.4099C29.7723 11.159 30.1068 10.9658 30.2881 10.6521C30.4692 10.3384 30.4692 9.95192 30.2881 9.6382C30.1068 9.32452 29.7723 9.13127 29.4099 9.13127H3.46354L10.8648 1.7398V1.73954C11.0568 1.54935 11.1647 1.29016 11.1647 1.01976C11.1647 0.749354 11.0568 0.490164 10.8648 0.299967V0.299935Z" fill="#026937"/>
</svg>
