<svg width="32" height="23" viewBox="0 0 32 23" fill="none" xmlns="http://www.w3.org/2000/svg">
<path d="M21.1366 12.7485C21.1366 15.8383 18.6317 18.3431 15.5419 18.3431C12.4521 18.3431 9.94727 15.8383 9.94727 12.7485C9.94727 9.65866 12.4521 7.15381 15.5419 7.15381C18.6317 7.15381 21.1366 9.65866 21.1366 12.7485Z" fill="#026937"/>
<path d="M29.2167 3.72982H23.6654C23.2503 3.72982 22.8618 3.52192 22.631 3.17647L20.8828 0.553828C20.652 0.207175 20.2637 0 19.8482 0H11.2328C10.8178 0 10.4292 0.207656 10.1984 0.553828L8.45022 3.17647C8.21944 3.52192 7.83112 3.72982 7.41558 3.72982H1.86478C0.834705 3.72982 0 4.56527 0 5.5946V21.1355C0 22.1653 0.834705 23 1.86478 23H29.2167C30.2468 23 31.0815 22.1653 31.0815 21.1355V5.5946C31.0817 4.56527 30.247 3.72982 29.217 3.72982H29.2167ZM15.5407 20.2081C11.4272 20.2081 8.08113 16.8622 8.08113 12.7485C8.08113 8.63629 11.4272 5.28884 15.5407 5.28884C19.6543 5.28884 23.0004 8.63635 23.0004 12.7485C23.0004 16.862 19.6543 20.2081 15.5407 20.2081ZM24.8653 6.53951C24.8653 6.87942 24.5899 7.1538 24.2498 7.1538H24.2372C23.8973 7.1538 23.6215 6.87918 23.6215 6.53951V6.5265C23.6215 6.18659 23.8971 5.911 24.2372 5.911H24.2498C24.5897 5.911 24.8653 6.18659 24.8653 6.5265V6.53951Z" fill="#026937"/>
<path d="M3.73047 1.24316H6.21701V2.48668H3.73047V1.24316Z" fill="#026937"/>
</svg>
