<svg xmlns="http://www.w3.org/2000/svg" width="131.151" height="18" viewBox="0 0 131.151 18">
  <g id="Logo" transform="translate(-603 -764.638)">
    <g id="DrHack" transform="translate(603 764.638)">
      <path id="Path_8" data-name="Path 8" d="M0,239.638H14.275a3.714,3.714,0,0,1,3.725,3.7v10.6a3.713,3.713,0,0,1-3.725,3.7H0Zm3.875,14.1h10.2v-10.2H3.875Z" transform="translate(0 -239.638)" fill="#fff"/>
      <path id="Path_9" data-name="Path 9" d="M44.112,243.371v4.649a3.541,3.541,0,0,1-1.1,2.613,3.6,3.6,0,0,1-2.624,1.088h-.175l3.9,4.6v1.325h-4l-4.975-5.924-5.15.025c.05,0,.075.05.075.15a.1.1,0,0,1-.075-.026v5.775H26.112V239.67H40.387a3.6,3.6,0,0,1,2.624,1.088,3.541,3.541,0,0,1,1.1,2.613m-14.125,4.45h10.2v-4.275h-10.2Z" transform="translate(-5.837 -239.645)" fill="#fff"/>
      <rect id="Rectangle_26" data-name="Rectangle 26" width="3.825" height="3.825" transform="translate(40.374 14.175)" fill="#fff"/>
      <path id="Path_10" data-name="Path 10" d="M82.182,239.638h3.875v18H82.182v-7.05H71.557v7.05H67.682v-18h3.875v7.05H82.182Z" transform="translate(-15.13 -239.638)" fill="#fff"/>
      <path id="Path_11" data-name="Path 11" d="M98.17,239.638h10.575a3.713,3.713,0,0,1,3.725,3.7v14.3h-3.925v-5.8h-10.2v5.8H94.469v-14.3a3.672,3.672,0,0,1,3.7-3.7m.175,8.3h10.2v-4.4h-10.2Z" transform="translate(-21.118 -239.638)" fill="#fff"/>
      <path id="Path_12" data-name="Path 12" d="M138.627,243.538H124.553v10.2h14.075v3.9h-14.25a3.672,3.672,0,0,1-3.7-3.7v-10.6a3.672,3.672,0,0,1,3.7-3.7h14.25Z" transform="translate(-26.976 -239.638)" fill="#fff"/>
      <path id="Path_13" data-name="Path 13" d="M159.857,239.638h4.05v1.35l-6.425,7.65,6.425,7.65v1.35h-4.05l-5.9-7.05h-3.525v7.05h-3.9v-18h3.9v7.05h3.525l2.249-2.675Z" transform="translate(-32.756 -239.638)" fill="#fff"/>
    </g>
  </g>
</svg>
