<svg width="40" height="54" viewBox="0 0 40 54" fill="none" xmlns="http://www.w3.org/2000/svg">
<path fill-rule="evenodd" clip-rule="evenodd" d="M20.6768 52.9775C20.2941 53.3293 19.7058 53.3293 19.3232 52.9775C6.44104 41.1354 0 29.9919 0 19.547C0 8.75147 8.9543 0 20 0C31.0457 0 40 8.75147 40 19.547C40 29.9919 33.5589 41.1354 20.6768 52.9775ZM20 27C24.1421 27 27.5 23.6421 27.5 19.5C27.5 15.3579 24.1421 12 20 12C15.8579 12 12.5 15.3579 12.5 19.5C12.5 23.6421 15.8579 27 20 27Z" fill="#026937"/>
</svg>
