<svg xmlns="http://www.w3.org/2000/svg" width="117.249" height="128" viewBox="0 0 117.249 128">
  <g id="security" transform="translate(-21.502 0)">
    <path id="Path_24" data-name="Path 24" d="M24.019,311.736a2.521,2.521,0,1,0-2.517-2.525v.014A2.512,2.512,0,0,0,24.019,311.736Z" transform="translate(0 -230.02)" fill="#fff"/>
    <path id="Path_25" data-name="Path 25" d="M134.866,88.254l-14.479-7.815V54.028c0-4.958-3.509-8.993-7.822-8.993h-2.3V39.342a39.324,39.324,0,0,0-78.647,0v5.693h-2.3c-4.313,0-7.821,4.034-7.821,8.993V67.97a2.517,2.517,0,1,0,5.035,0V54.028c0-2.108,1.3-3.958,2.786-3.958h83.242c1.484,0,2.786,1.849,2.786,3.958v26.41l-14.5,7.824c-2.378,1.284-3.837,2.26-3.869,6a38.511,38.511,0,0,0,4.888,18.328q.309.575.625,1.13H29.324c-1.484,0-2.786-1.849-2.786-3.957V90.413a2.517,2.517,0,1,0-5.035,0v19.354c0,4.958,3.509,8.993,7.821,8.993h76.461a30.644,30.644,0,0,0,8.633,8.023,5.506,5.506,0,0,0,6.906,0c4.825-2.888,9.045-7.663,12.539-14.19a38.514,38.514,0,0,0,4.888-18.327c-.033-3.751-1.5-4.728-3.884-6.013ZM93.244,45.035h-44.6V39.342a22.3,22.3,0,1,1,44.6,0v5.693Zm11.989,0H98.28V39.342a27.335,27.335,0,0,0-54.669,0v5.693H36.657V39.342a34.288,34.288,0,1,1,68.576,0Zm24.191,65.18c-3.016,5.633-6.712,9.868-10.688,12.247a7.767,7.767,0,0,1-.866.471,7.768,7.768,0,0,1-.867-.471h0a26.455,26.455,0,0,1-7.838-7.607c-.013-.02-.027-.039-.041-.058a44.347,44.347,0,0,1-2.815-4.583,33.487,33.487,0,0,1-4.29-15.9,5.244,5.244,0,0,1,.067-.949,13.02,13.02,0,0,1,1.159-.668L117.87,84.8l14.542,7.85.069.037a13.147,13.147,0,0,1,1.167.671,5.33,5.33,0,0,1,.067.951,33.492,33.492,0,0,1-4.291,15.9Z" transform="translate(0 0)" fill="#fff"/>
    <path id="Path_26" data-name="Path 26" d="M236.151,271.971h22.3a2.518,2.518,0,0,0,0-5.035h-22.3a2.518,2.518,0,0,0,0,5.035Z" transform="translate(-159.099 -200.202)" fill="#fff"/>
    <path id="Path_27" data-name="Path 27" d="M236.151,325.955h15.388a2.518,2.518,0,0,0,0-5.035H236.151a2.518,2.518,0,0,0,0,5.035Z" transform="translate(-159.099 -240.689)" fill="#fff"/>
    <path id="Path_28" data-name="Path 28" d="M74.386,275.831a6.435,6.435,0,0,0,6.427,6.428h23.864a6.438,6.438,0,0,0,6.434-6.428,18.151,18.151,0,0,0-5.674-12.853,19.76,19.76,0,0,0-4.529-3.293,12.837,12.837,0,1,0-16.322,0,19.748,19.748,0,0,0-4.529,3.294,18.155,18.155,0,0,0-5.67,12.852Zm18.359-33.867a7.811,7.811,0,1,1-7.8,7.811A7.818,7.818,0,0,1,92.745,241.963Zm0,20.658c6.852,0,13.331,6.42,13.331,13.209a1.414,1.414,0,0,1-1.4,1.393H80.813a1.411,1.411,0,0,1-1.392-1.393C79.421,269.041,85.9,262.621,92.745,262.621Z" transform="translate(-39.663 -177.696)" fill="#fff"/>
    <path id="Path_29" data-name="Path 29" d="M386.926,387.223l-7.193,7.379-2.5-2.338a2.518,2.518,0,0,0-3.441,3.676l4.3,4.024a2.518,2.518,0,0,0,3.523-.08l8.916-9.146a2.518,2.518,0,0,0-3.606-3.515Z" transform="translate(-263.621 -289.847)" fill="#fff"/>
  </g>
</svg>
